<?xml version="1.0" encoding="utf-8"?>
<!-- Generator: Adobe Illustrator 17.1.0, SVG Export Plug-In . SVG Version: 6.00 Build 0)  -->
<!DOCTYPE svg PUBLIC "-//W3C//DTD SVG 1.1//EN" "http://www.w3.org/Graphics/SVG/1.1/DTD/svg11.dtd">
<svg version="1.1" id="Layer_1" xmlns="http://www.w3.org/2000/svg" xmlns:xlink="http://www.w3.org/1999/xlink" x="0px" y="0px"
	 viewBox="0 0 490 66" enable-background="new 0 0 490 66" xml:space="preserve">
<path d="M313.7,65.7c-10.3,0-18.8-8.4-18.8-18.8c0-8.5,5.3-13.4,10.1-16.7c-3.3-3.4-6.1-7.3-6.1-13c0-9.1,7.4-16.5,16.5-16.5
	c9.1,0,16.5,7.4,16.5,16.5c0,7.4-4.5,11.6-9.5,14.9l8.6,8.6l12.7-12.7l3.6,11.8l-8.6,8.6l16.2,16.2h-15.4l-8.4-8.4l-4,4
	C323.4,63.8,318.7,65.7,313.7,65.7z M312.9,38.2c-4.8,3-7.1,5.1-7.1,8.8c0,4.3,3.5,7.9,7.9,7.9c2.1,0,3.9-0.7,5.6-2.3l4-4
	L312.9,38.2z M315.4,11.7c-3.1,0-5.6,2.5-5.6,5.6c0,2.3,1.6,4,4.5,6.8l0.2,0.2c4.8-3.1,6.5-4.5,6.5-7
	C321,14.2,318.5,11.7,315.4,11.7z"/>
<path d="M0,64.7V0.8h20.9c3.3,0,6.3,0.4,9,1.3C32.6,3,35,4.3,37,6c2,1.7,3.5,3.8,4.6,6.2c1.1,2.5,1.6,5.3,1.6,8.4
	c0,3.1-0.5,5.9-1.6,8.3c-1.1,2.4-2.6,4.5-4.6,6.2c-2,1.7-4.3,2.9-7,3.8c-2.7,0.9-5.7,1.3-9,1.3H12v24.4H0z M21.1,29.4
	c3,0,5.5-0.8,7.3-2.3c1.9-1.5,2.8-3.7,2.8-6.5c0-2.9-0.9-5-2.8-6.5c-1.9-1.5-4.3-2.3-7.3-2.3H12v17.7H21.1z"/>
<path d="M68.7,65.7c-3.4,0-6.6-0.6-9.4-1.7c-2.9-1.2-5.4-2.8-7.4-4.9c-2-2.1-3.7-4.6-4.8-7.4c-1.2-2.9-1.7-6.1-1.7-9.5
	c0-3.3,0.6-6.5,1.7-9.4c1.2-2.9,2.8-5.4,4.8-7.5c2-2.1,4.5-3.8,7.3-5c2.8-1.2,5.8-1.8,9.1-1.8c3.3,0,6.3,0.6,9.1,1.8
	c2.7,1.2,5.1,2.9,7.1,5c2,2.1,3.5,4.6,4.6,7.5c1.1,2.9,1.7,6,1.7,9.3c0,0.8,0,1.9-0.1,3.2l0,0.6H56.9c0.2,1.3,0.5,2.4,1.1,3.5
	c0.7,1.3,1.6,2.4,2.6,3.3c1.1,0.9,2.3,1.7,3.7,2.2c1.4,0.5,2.9,0.8,4.4,0.8c2.7,0,4.9-0.6,6.4-1.8c1.6-1.2,3-2.7,4.2-4.6l0.3-0.5
	l9.6,4.5L89,54c-1.9,3.5-4.6,6.4-8,8.5C77.6,64.7,73.5,65.7,68.7,65.7z M79,37.1C78.8,36,78.4,35,77.9,34c-0.6-1.2-1.4-2.2-2.4-3
	c-1-0.8-2.1-1.5-3.4-2c-1.3-0.5-2.7-0.7-4.2-0.7c-1.5,0-2.8,0.3-4.1,0.8c-1.3,0.6-2.4,1.3-3.4,2.2c-1,0.9-1.8,1.9-2.4,3
	c-0.5,0.9-0.8,1.8-1.1,2.8H79z"/>
<path d="M98.2,64.7V19.6h11.5v5.6c1.1-1.6,2.5-3,4.2-4.1c2.5-1.6,5.2-2.4,8.2-2.4c1,0,1.7,0.1,2.6,0.3v0.3v11.5c0,0-0.9-0.3-1.4-0.4
	c-0.5-0.1-0.9-0.2-1.8-0.2c-3.6,0-6.5,1.4-8.6,4c-2.1,2.6-3.1,6.1-3.1,10.5v19.9H98.2z"/>
<polygon points="162,64.7 146.6,45.6 145.1,47 145.1,64.7 133.5,64.7 133.5,0.8 145.1,0.8 145.1,35.2 160.6,19.6 175.1,19.6 
	155.4,39.3 176.3,64.7 "/>
<path d="M187.6,14.9c-1.9,0-3.5-0.7-4.9-2.1c-1.4-1.4-2.1-3-2.1-4.9c0-2,0.7-3.6,2.1-5c1.4-1.4,3-2.1,4.9-2.1c2,0,3.7,0.7,5.1,2.1
	c1.3,1.4,2,3.1,2,4.9c0,1.9-0.7,3.5-2,4.9C191.3,14.2,189.6,14.9,187.6,14.9z"/>
<rect x="181.8" y="19.6" width="11.6" height="45.1"/>
<path d="M232.8,64.7v-25c0-3.2-0.8-5.8-2.4-7.6c-1.5-1.8-3.8-2.7-6.8-2.7c-2.9,0-5.2,1-7,3.1c-1.8,2.1-2.7,4.9-2.7,8.5v23.7h-11.6
	V19.6H214v4.5c1.2-1.5,2.7-2.7,4.5-3.7c2.3-1.3,5.1-2,8.3-2c5.5,0,9.9,1.7,13,5.2c3.1,3.4,4.6,8.1,4.6,14v27H232.8z"/>
<path d="M268.1,65.7c-4.2,0-7.9-1.1-11-3.1c-3.1-2.1-5.3-4.9-6.6-8.4l-0.2-0.5l9.5-5l0.3,0.7c0.7,1.9,1.8,3.5,3.3,4.6
	c1.4,1.1,3,1.7,4.9,1.7c1.5,0,2.8-0.3,3.8-1c1-0.6,1.5-1.6,1.5-2.9c0-1-0.3-1.8-1-2.4c-0.7-0.7-1.9-1.2-3.6-1.7l-5.3-1.7
	c-7.7-2.5-11.6-6.9-11.6-13.3c0-2.1,0.4-4.1,1.3-5.8c0.8-1.7,2-3.2,3.4-4.5c1.4-1.2,3.1-2.1,5-2.8c1.9-0.6,3.9-1,6.1-1
	c3.7,0,7,0.9,9.9,2.8c2.9,1.8,5.1,4.4,6.5,7.5l0.2,0.5l-9.4,5.1l-0.3-0.6c-0.8-1.6-1.8-3-3-4c-1.2-1-2.5-1.5-4-1.5
	c-1.4,0-2.5,0.3-3.4,1c-0.8,0.6-1.3,1.4-1.3,2.4c0,1.8,1.5,3.2,4.5,4.1l5.2,1.7c4.2,1.4,7.3,3.2,9.1,5.4c1.9,2.2,2.8,4.9,2.8,8
	c0,2.4-0.5,4.5-1.4,6.3c-0.9,1.8-2.1,3.4-3.7,4.6c-1.5,1.3-3.3,2.2-5.3,2.9C272.5,65.4,270.3,65.7,268.1,65.7z"/>
<path d="M442.6,14.9c-1.9,0-3.5-0.7-4.9-2.1c-1.4-1.4-2.1-3-2.1-4.9c0-2,0.7-3.6,2.1-5c1.4-1.4,3-2.1,4.9-2.1c2,0,3.7,0.7,5.1,2.1
	c1.3,1.4,2,3.1,2,4.9c0,1.9-0.7,3.5-2,4.9C446.3,14.2,444.6,14.9,442.6,14.9z"/>
<rect x="436.8" y="19.6" width="11.6" height="45.1"/>
<rect x="457.4" y="0.8" width="11.6" height="63.8"/>
<rect x="478" y="0.8" width="11.6" height="63.8"/>
<path d="M368.9,64.7L349.8,0.8h12.5L374,43l11.9-42.2h9.7L407.4,43l11.7-42.2h12.3l-19.1,63.8h-9.8l-11.9-42.6l-11.9,42.6H368.9z"/>
</svg>
